<?xml version="1.0" standalone="no"?><!DOCTYPE svg PUBLIC "-//W3C//DTD SVG 1.1//EN" "http://www.w3.org/Graphics/SVG/1.1/DTD/svg11.dtd"><svg t="1670914671209" class="icon" viewBox="0 0 1024 1024" version="1.1" xmlns="http://www.w3.org/2000/svg" p-id="3038" xmlns:xlink="http://www.w3.org/1999/xlink" width="200" height="200"><path d="M935.16 88.84C877.88 31.544 801.704 0 720.68 0 639.672 0 563.504 31.544 506.216 88.84l-417.36 417.36C31.536 563.496 0 639.664 0 720.68c0 81.024 31.544 157.2 88.84 214.48C146.136 992.44 222.296 1024 303.32 1024c81.016 0 157.184-31.544 214.48-88.84l209.208-209.216a40 40 0 0 0 0-56.568L382.904 325.272l179.872-179.864C604.952 103.224 661.032 80 720.688 80c59.648 0 115.728 23.224 157.904 65.408C920.776 187.584 944 243.664 944 303.312c0 59.656-23.224 115.736-65.328 157.84l-69.712 69.32a40 40 0 1 0 56.416 56.72l69.784-69.4C992.456 460.512 1024 384.336 1024 303.312c0-81.016-31.544-157.184-88.84-214.472zM642.16 697.656l-180.936 180.936C419.048 920.776 362.968 944 303.312 944c-59.648 0-115.728-23.224-157.904-65.408C103.224 836.416 80 780.336 80 720.688c0-59.656 23.224-115.736 65.408-157.92L326.344 381.84 642.16 697.656z m128.136-445.952c-26.888-26.88-70.632-26.88-97.52 0L575.472 349.104a39.872 39.872 0 0 1-28.304 11.728 40 40 0 0 1-28.296-68.272l97.32-97.408c58.088-58.096 152.592-58.096 210.664-0.016a40 40 0 1 1-56.56 56.56z m-573.152 577.152a39.984 39.984 0 0 1 0-56.56 39.984 39.984 0 0 1 56.56 0c26.888 26.88 70.64 26.88 97.52 0L448.88 674.56a40.008 40.008 0 0 1 56.6 56.552l-97.664 97.744a148.544 148.544 0 0 1-105.344 43.576 148.48 148.48 0 0 1-105.32-43.568z" fill="#4A90E2" p-id="3039"></path></svg>